<?xml version="1.0" encoding="iso-8859-1"?>
<!-- Generator: Adobe Illustrator 19.0.0, SVG Export Plug-In . SVG Version: 6.00 Build 0)  -->
<svg version="1.1" id="Capa_1" xmlns="http://www.w3.org/2000/svg" xmlns:xlink="http://www.w3.org/1999/xlink" x="0px" y="0px"
	 viewBox="0 0 388.891 388.891" style="enable-background:new 0 0 388.891 388.891;" xml:space="preserve">
<g>
	<g>
		<path d="M335.35,42.842L289,1.882c-1.207-1.067-2.761-1.657-4.371-1.657H57.912c-3.644,0-6.6,2.956-6.6,6.6v375.467
			c0,3.644,2.956,6.6,6.6,6.6h273.067c3.644,0,6.6-2.958,6.601-6.6V47.785C337.58,45.896,336.766,44.092,335.35,42.842z
			 M324.379,375.69H64.512V13.425h217.62l42.247,37.333V375.69z"/>
	</g>
</g>
<g>
	<g>
		<path d="M335.421,42.6L287.635,1.64c-2.022-1.731-4.866-2.127-7.296-1.021c-2.42,1.118-3.973,3.538-3.973,6.204v40.96
			c0,3.77,3.057,6.827,6.827,6.827h47.787c2.857,0,5.41-1.78,6.402-4.456C338.372,47.472,337.591,44.46,335.421,42.6z
			 M290.019,40.956V21.668l22.508,19.289H290.019z"/>
	</g>
</g>
<g>
	<g>
		<path d="M283.192,143.356H57.912c-3.77,0-6.827,3.057-6.827,6.827v116.053c0,3.77,3.057,6.827,6.827,6.827h225.28
			c3.77,0,6.827-3.057,6.827-6.827V150.183C290.019,146.413,286.962,143.356,283.192,143.356z M276.366,259.41H64.739v-102.4
			h211.627V259.41z"/>
	</g>
</g>
<g>
	<g>
		<path d="M159.65,181.943c-0.12-1.094-0.399-2.075-0.84-2.941c-0.44-0.865-1.099-1.565-1.98-2.099c-0.881-0.534-2.094-0.8-3.64-0.8
			s-2.761,0.268-3.64,0.8s-1.539,1.232-1.98,2.099s-0.72,1.847-0.84,2.941c-0.12,1.094-0.179,2.214-0.179,3.36h-0.002v37.6
			c0,1.172,0.06,2.306,0.179,3.4c0.12,1.094,0.399,2.074,0.84,2.941c0.44,0.867,1.099,1.56,1.98,2.08
			c0.881,0.521,2.092,0.78,3.64,0.78c1.548,0,2.766-0.259,3.661-0.78s1.562-1.213,2-2.08s0.712-1.848,0.819-2.941
			c0.108-1.092,0.16-2.226,0.16-3.4v-37.6C159.829,184.156,159.77,183.036,159.65,181.943z"/>
	</g>
</g>
<g>
	<g>
		<path d="M204.614,178.603c-0.546-0.759-1.26-1.328-2.14-1.7c-0.881-0.372-1.86-0.599-2.941-0.679
			c-1.08-0.08-2.154-0.12-3.221-0.12H175.99c-1.067,0-2.14,0.041-3.22,0.12c-1.08,0.078-2.06,0.305-2.941,0.679
			s-1.594,0.94-2.14,1.7c-0.546,0.759-0.819,1.819-0.819,3.18c0,1.333,0.273,2.381,0.819,3.14c0.546,0.76,1.259,1.326,2.14,1.7
			s1.86,0.606,2.941,0.7s2.154,0.14,3.22,0.14h4.081v35.519c0,1.147,0.034,2.266,0.101,3.36c0.067,1.094,0.287,2.067,0.66,2.92
			c0.374,0.853,0.975,1.539,1.801,2.06s1.998,0.78,3.519,0.78c1.519,0,2.691-0.259,3.519-0.78s1.427-1.207,1.801-2.06
			c0.374-0.853,0.594-1.826,0.66-2.92c0.067-1.094,0.101-2.214,0.101-3.36v-35.519h4.081c1.067,0,2.14-0.046,3.221-0.14
			c1.08-0.094,2.06-0.326,2.941-0.7s1.594-0.94,2.14-1.7c0.546-0.759,0.819-1.807,0.819-3.14
			C205.433,180.422,205.16,179.362,204.614,178.603z"/>
	</g>
</g>
<g>
</g>
<g>
</g>
<g>
</g>
<g>
</g>
<g>
</g>
<g>
</g>
<g>
</g>
<g>
</g>
<g>
</g>
<g>
</g>
<g>
</g>
<g>
</g>
<g>
</g>
<g>
</g>
<g>
</g>
</svg>
