<svg width="72" height="60" viewBox="0 0 72 60" fill="none" xmlns="http://www.w3.org/2000/svg">
<path fill-rule="evenodd" clip-rule="evenodd" d="M54.0251 48.4513C56.2987 48.4513 58.4005 50.0841 58.4005 52.7124C58.4005 54.7301 56.8804 55.3805 53.2716 55.3938H51.5003C51.6986 56.7743 52.9544 57.6504 54.5539 57.6504C55.6907 57.6504 57.0258 57.4248 57.8982 56.615H57.9907V57.4646C57.9907 58.8717 57.039 59.9469 54.0383 59.9469C51.3285 59.9469 48.6715 57.7832 48.6715 54.4248C48.6715 50.7478 50.9055 48.4513 54.0251 48.4513ZM51.5003 53.0708L51.4739 53.4425H52.69C55.2677 53.4425 55.8493 53.1504 55.8493 52.3805C55.8493 51.2788 55.043 50.7345 53.7872 50.7345C52.4785 50.7345 51.5664 51.8097 51.5003 53.0708Z" fill="white"/>
<path fill-rule="evenodd" clip-rule="evenodd" d="M65.38 48.4513C68.6583 48.4513 70.5486 51.1062 70.5486 54.0133C70.5486 57.3186 68.6715 59.9469 65.1421 59.9336C61.8639 59.9336 59.9736 57.3053 59.9736 54.3982C59.9736 51.0929 61.8506 48.4513 65.38 48.4513ZM65.1421 50.8938C63.5823 50.8938 62.7892 52.1947 62.7892 54.0133C62.7892 56.1903 63.5823 57.4911 65.38 57.4911C66.9663 57.4911 67.733 56.1903 67.733 54.3982C67.733 52.1947 66.9266 50.8938 65.1421 50.8938Z" fill="white"/>
<path d="M5.10246 59.8142H5.47259C6.45078 58.4867 7.71978 55.0885 8.06347 53.4159C8.3675 55.0885 9.20028 57.1195 9.86122 58.3407C10.2313 59.0177 10.8791 59.8009 11.7251 59.8009H12.1745C12.8883 58.7389 13.8929 56.7212 14.7125 54.3982C15.5189 52.1151 15.9683 50.2168 15.9683 49.792C15.9683 48.9558 15.4263 48.6106 14.6464 48.6106H13.5096C13.0866 51.0929 12.4918 53.6416 11.4607 55.9381C10.694 54.385 10.0198 52.1151 9.70259 50.6283C9.43822 49.4204 8.60544 49.0752 7.77265 49.0752H6.887C6.35825 51.3982 5.81628 53.7611 4.82487 55.9381C3.91277 53.9469 3.41046 51.8628 3.07999 49.9912C2.97424 49.3805 2.43227 48.6637 1.49374 48.6637H0.0396729C0.528767 52.3274 1.57305 55.5133 3.1593 58.3142C3.51621 59.0044 4.2829 59.8142 5.10246 59.8142Z" fill="white"/>
<path fill-rule="evenodd" clip-rule="evenodd" d="M22.4719 48.4513C25.7502 48.4513 27.6404 51.1062 27.6404 54.0133C27.6404 57.3186 25.7634 59.9469 22.234 59.9336C18.9557 59.9336 17.0654 57.3053 17.0654 54.3982C17.0654 51.0929 18.9425 48.4513 22.4719 48.4513ZM22.2472 50.8938C20.6874 50.8938 19.8942 52.1947 19.8942 54.0133C19.8942 56.1903 20.6742 57.4911 22.4851 57.4911C24.0714 57.4911 24.8381 56.1903 24.8381 54.3982C24.8381 52.1947 24.0317 50.8938 22.2472 50.8938Z" fill="white"/>
<path d="M38.5724 45.0266H37.7V57.7566C37.7 59.0177 38.2816 59.6947 39.4977 59.6947H40.423V54.3186C41.6127 55.9248 42.8288 57.5575 44.23 59.0044C44.6927 59.469 45.4065 59.7611 46.0146 59.7611C47.1249 59.7611 47.5744 59.2965 47.852 58.4204C47.1778 58.1947 46.7416 57.9956 45.7502 57C44.772 56.0044 43.926 54.8761 43.0536 53.8009C44.1904 52.354 46.7152 49.4602 47.4951 48.8097V48.7035H45.9352C45.0628 48.7035 44.4151 48.8097 43.7674 49.4204C42.8553 50.2965 42.0225 51.2522 40.423 53.4159V46.8584C40.423 45.7832 39.881 45.0266 38.5724 45.0266Z" fill="white"/>
<path d="M32.5049 59.6947V53.3761C32.5049 51.7035 33.1791 51.0398 34.3952 51.0398C35.109 51.0398 35.5717 51.1991 35.9815 51.3717H36.0872V50.3894C36.0872 49.5531 35.5056 48.5974 33.8136 48.5974C30.9319 48.5974 29.7819 50.6947 29.7819 52.8982V57.9558C29.7819 59.0974 30.5485 59.708 31.7647 59.708H32.5049V59.6947Z" fill="white"/>
<path d="M34.8529 16.3126C34.8925 16.3126 34.9188 16.3126 34.9584 16.3126C38.1618 16.3126 40.7719 13.7142 40.7719 10.512C40.7719 7.30984 38.1749 4.71136 34.9584 4.71136C34.9188 4.71136 34.8925 4.71136 34.8529 4.71136C34.8134 4.71136 34.787 4.71136 34.7475 4.71136C31.5441 4.71136 28.934 7.30984 28.934 10.512C28.934 13.7142 31.5309 16.3126 34.7475 16.3126C34.787 16.3126 34.8134 16.3126 34.8529 16.3126Z" fill="#FFC63A"/>
<path d="M15.145 21.5883C16.2787 21.5883 17.3465 21.8639 18.2825 22.3626C18.2825 22.3495 18.2956 22.3495 18.2956 22.3364C18.8493 22.7301 19.5216 22.9663 20.2599 22.9663C22.1054 22.9663 23.6082 21.4833 23.6082 19.646C23.6082 18.3074 22.8041 17.1525 21.6572 16.6276C19.7325 15.5777 17.4915 14.974 15.145 14.974C7.78914 14.974 1.81744 20.9059 1.81744 28.2157C1.81744 35.5256 7.78914 41.4575 15.145 41.4575C17.5706 41.4575 19.8512 40.8144 21.8022 39.6858C21.8286 39.6727 21.8549 39.6595 21.8813 39.6464C21.9077 39.6333 21.9472 39.607 21.9736 39.5939C24.0564 38.3997 26.0075 36.1293 27.853 32.7828C29.4745 29.83 31.8078 28.3207 34.8398 28.2289C37.8718 28.3207 40.2051 29.83 41.8265 32.7828C43.6721 36.1293 45.6363 38.3997 47.7059 39.5939C47.7323 39.607 47.7719 39.6333 47.7982 39.6464C47.8246 39.6595 47.851 39.6727 47.8773 39.6858C49.8415 40.8144 52.1089 41.4575 54.5345 41.4575C61.8904 41.4575 67.8621 35.5256 67.8621 28.2157C67.8621 20.9059 61.8904 14.974 54.5345 14.974C52.188 14.974 49.947 15.5777 48.0223 16.6276C46.8755 17.1525 46.0713 18.3074 46.0713 19.646C46.0713 21.4833 47.5741 22.9663 49.4197 22.9663C50.1579 22.9663 50.8302 22.7301 51.3839 22.3364C51.3839 22.3495 51.3971 22.3495 51.3971 22.3626C52.333 21.8639 53.4008 21.5883 54.5345 21.5883C58.2125 21.5883 61.1917 24.5543 61.1917 28.2026C61.1917 31.8641 58.2125 34.8169 54.5345 34.8169C52.3594 34.8169 50.4216 33.7802 49.2088 32.166C49.2088 32.1528 49.1956 32.1528 49.1956 32.1397C48.9978 31.8772 48.8265 31.6016 48.6683 31.3129C47.7323 29.8562 46.7964 28.4126 45.8604 26.9821C44.7399 25.2629 43.5139 23.9899 42.2088 23.1632L42.3143 22.9138C42.2747 22.9926 42.2484 23.0844 42.2088 23.1632C40.0864 21.7852 37.5686 20.9715 34.8529 20.9059C32.1373 20.9584 29.6195 21.7852 27.4971 23.1632C27.4575 23.0844 27.4312 22.9926 27.3916 22.9138L27.4971 23.1632C26.192 23.9899 24.966 25.2629 23.8455 26.9821C22.8964 28.4126 21.9604 29.8693 21.0376 31.3129C20.8794 31.6016 20.7081 31.8772 20.5103 32.1397C20.5103 32.1528 20.4971 32.1528 20.4971 32.166C19.2843 33.767 17.3465 34.8169 15.1714 34.8169C11.4934 34.8169 8.51419 31.851 8.51419 28.2026C8.48782 24.5543 11.4671 21.5883 15.145 21.5883Z" fill="#FFC63A"/>
<path d="M54.3236 11.6669C57.5343 11.6669 60.1371 9.06985 60.1371 5.86625C60.1371 2.66264 57.5343 0.0656128 54.3236 0.0656128C51.1129 0.0656128 48.5101 2.66264 48.5101 5.86625C48.5101 9.06985 51.1129 11.6669 54.3236 11.6669Z" fill="#FFC63A"/>
<path d="M15.3823 11.6669C18.593 11.6669 21.1958 9.06985 21.1958 5.86625C21.1958 2.66264 18.593 0.0656128 15.3823 0.0656128C12.1716 0.0656128 9.56879 2.66264 9.56879 5.86625C9.56879 9.06985 12.1716 11.6669 15.3823 11.6669Z" fill="#FFC63A"/>
</svg>
